<svg width="52" height="72" viewBox="0 0 52 72" fill="none" xmlns="http://www.w3.org/2000/svg">
<g clip-path="url(#clip0_279_21)">
<path d="M51.8197 14.2402L47.1798 66.2181L26.3236 72.0002L5.52481 66.2263L0.889893 14.2402H51.8197Z" fill="#264DE4"/>
<path d="M43.2076 62.9082L47.1726 18.4907H26.3547V67.5805L43.2076 62.9082Z" fill="#2965F1"/>
<path d="M11.5154 37.7715L12.0868 44.1473H26.3548V37.7715H11.5154Z" fill="#EBEBEB"/>
<path d="M26.3549 24.8667H26.3328H10.3672L10.9468 31.2426H26.3549V24.8667Z" fill="#EBEBEB"/>
<path d="M26.3549 60.964V54.3304L26.327 54.3379L19.2261 52.4205L18.7722 47.3354H15.3217H12.3718L13.2651 57.3465L26.3256 60.9722L26.3549 60.964Z" fill="#EBEBEB"/>
<path d="M12.876 0.112305H20.5983V3.34163H16.1053V6.57095H20.5983V9.80027H12.876V0.112305Z" fill="white"/>
<path d="M22.1426 0.112305H29.8649V2.92041H25.3719V3.48203H29.8649V9.94068H22.1426V6.99216H26.6355V6.43054H22.1426V0.112305Z" fill="white"/>
<path d="M31.4092 0.112305H39.1315V2.92041H34.6385V3.48203H39.1315V9.94068H31.4092V6.99216H35.9021V6.43054H31.4092V0.112305Z" fill="white"/>
<path d="M34.1839 44.1474L33.4439 52.4165L26.3328 54.3358V60.9691L39.4037 57.3465L39.4995 56.2693L40.9978 39.4837L41.1534 37.7716L42.3044 24.8667H26.3328V31.2426H35.317L34.7369 37.7716H26.3328V44.1474H34.1839Z" fill="white"/>
</g>
<defs>
<clipPath id="clip0_279_21">
<rect width="50.9298" height="71.8875" fill="white" transform="translate(0.889893 0.112305)"/>
</clipPath>
</defs>
</svg>
