<svg width="61" height="60" viewBox="0 0 61 60" fill="none" xmlns="http://www.w3.org/2000/svg">
<path d="M20.9899 59.2635C21.9169 58.8645 22.5663 57.9426 22.5663 56.8695V49.8282C22.5663 49.5714 22.5872 49.3041 22.6198 49.0328C22.6015 49.0381 22.5846 49.042 22.5663 49.0459C22.5663 49.0459 18.6545 49.0459 17.8721 49.0459C15.9162 49.0459 14.2211 48.2635 13.4388 46.6988C12.526 45.0037 12.1348 42.135 9.78775 40.5703C9.39656 40.3095 9.65735 39.9183 10.4397 39.9183C11.2221 40.0487 12.9172 41.0919 13.9603 42.5262C15.1339 43.9605 16.3074 45.1341 18.3937 45.1341C21.6366 45.1341 23.3747 44.9711 24.4205 44.4104C25.6384 42.5992 27.3244 41.2223 29.086 41.2223V41.1897C21.6953 40.9524 16.9737 38.4957 14.7753 34.7026C9.99637 34.7574 5.83552 35.2307 3.46105 35.6245C3.38543 35.1981 3.32023 34.7691 3.26416 34.3375C5.60733 33.9515 9.57912 33.4939 14.1455 33.4065C13.9995 33.0466 13.873 32.6776 13.7661 32.2994C9.18794 32.0673 5.23701 32.2486 3.09074 32.4259C3.06466 31.993 3.02945 31.5614 3.02424 31.1233C5.17442 30.9473 9.01842 30.7712 13.4792 30.9786C13.3762 30.3266 13.3097 29.6603 13.3097 28.9666C13.3097 26.7499 14.092 24.4028 15.5264 22.4469C14.8744 20.2302 13.9616 15.5361 15.7871 13.8409C19.3078 13.8409 21.7853 15.5361 22.9588 16.5792C25.1742 15.6652 27.6517 15.1436 30.3899 15.1436C33.1282 15.1436 35.6057 15.6652 37.692 16.5779C38.8655 15.5348 41.343 13.8396 44.8636 13.8396C46.8195 15.6652 45.7763 20.3593 45.1244 22.4456C46.5587 24.4015 47.3411 26.6182 47.2107 28.9653C47.2107 29.5964 47.152 30.2053 47.0672 30.8025C51.6297 30.5783 55.578 30.7582 57.7647 30.9355C57.7621 31.375 57.7217 31.804 57.6982 32.2382C55.5194 32.0582 51.4719 31.8731 46.7986 32.1221C46.6826 32.5602 46.5418 32.9866 46.3749 33.4C50.9986 33.46 55.0656 33.9072 57.5209 34.2984C57.4648 34.7313 57.3996 35.1603 57.324 35.5854C54.8309 35.1864 50.5814 34.7196 45.7464 34.6961C43.5753 38.4488 38.9398 40.8963 31.6939 41.1819V41.2223C35.0841 41.2223 38.2135 46.3076 38.2135 49.8282V56.8695C38.2135 57.9426 38.8629 58.8645 39.79 59.2635C51.7353 55.31 60.3804 44.044 60.3804 30.7908C60.3804 14.2543 46.9277 0.800293 30.3899 0.800293C13.8521 0.800293 0.399414 14.2543 0.399414 30.7908C0.399414 44.044 9.0445 55.31 20.9899 59.2635Z" fill="white"/>
</svg>
