<svg width="73" height="72" viewBox="0 0 73 72" fill="none" xmlns="http://www.w3.org/2000/svg">
<g clip-path="url(#clip0_279_15)">
<path d="M15.875 0.112305H19.1043V3.31355H22.0809V0.112305H25.3103V9.80029H22.0809V6.57096H19.1324V9.80029H15.875M29.5786 3.34163H26.7284V0.112305H35.6722V3.34163H32.8079V9.80029H29.5786M37.0903 0.112305H40.4741L42.5521 3.52416L44.6301 0.112305H48.0139V9.80029H44.7845V4.99842L42.524 8.48048L40.2635 4.99842V9.80029H37.0903M49.6145 0.112305H52.8438V6.59905H57.421V9.80029H49.6145" fill="white"/>
<path d="M15.7628 66.2431L11.1294 14.2368H62.0686L57.4352 66.215L36.5569 71.9997" fill="#E44D26"/>
<path d="M36.5989 67.5771V18.5054H57.421L53.4476 62.8736" fill="#F16529"/>
<path d="M20.5925 24.8657H36.5988V31.2401H27.5847L28.1744 37.769H36.5988V44.1294H22.3336M22.6144 47.3306H29.0169L29.4662 52.4274L36.5988 54.3369V60.9921L23.513 57.3416" fill="#EBEBEB"/>
<path d="M52.549 24.8657H36.5708V31.2401H51.9593M51.3836 37.769H36.5708V44.1434H44.4335L43.6894 52.4274L36.5708 54.3369V60.964L49.6285 57.3416" fill="white"/>
</g>
<defs>
<clipPath id="clip0_279_15">
<rect width="71.8877" height="71.8877" fill="white" transform="translate(0.655029 0.112305)"/>
</clipPath>
</defs>
</svg>
