<svg width="43" height="80" viewBox="0 0 43 80" fill="none" xmlns="http://www.w3.org/2000/svg">
<path d="M40.5253 62.4456H40.229V62.2798H41.0271V62.4456H40.7325V63.2731H40.5253V62.4456ZM42.1171 62.4888H42.1124L41.8186 63.2734H41.6842L41.3923 62.4888H41.3889V63.2734H41.1935V62.2801H41.4809L41.7515 62.9834L42.0212 62.2801H42.3077V63.2734H42.1169L42.1171 62.4888Z" fill="#E76F00"/>
<path d="M13.9879 42.1342C13.9879 42.1342 11.9254 43.3336 15.4557 43.7395C19.7326 44.2274 21.9185 44.1574 26.6316 43.2654C26.6316 43.2654 27.8708 44.0423 29.6013 44.7153C19.0356 49.2436 5.68914 44.453 13.9879 42.1342ZM12.6968 36.2251C12.6968 36.2251 10.3835 37.9375 13.9165 38.3029C18.4852 38.7742 22.0932 38.8128 28.3364 37.6106C28.3364 37.6106 29.2001 38.486 30.5579 38.9648C17.7833 42.7002 3.55477 39.2594 12.6968 36.2251Z" fill="#5382A1"/>
<path d="M23.5807 26.2015C26.1841 29.1988 22.8968 31.8962 22.8968 31.8962C22.8968 31.8962 29.507 28.4837 26.4712 24.2104C23.6358 20.2252 21.4615 18.2453 33.2327 11.4185C33.2328 11.4183 14.7558 16.033 23.5807 26.2015Z" fill="#E76F00"/>
<path d="M37.5545 46.5053C37.5545 46.5053 39.0808 47.763 35.8736 48.7358C29.775 50.5833 10.4904 51.1412 5.13327 48.8096C3.2075 47.9716 6.81885 46.809 7.95485 46.5651C9.13957 46.3082 9.8166 46.356 9.8166 46.356C7.67496 44.8473 -4.02611 49.3183 3.87304 50.5989C25.4152 54.0924 43.1424 49.0257 37.5545 46.5053ZM14.9794 30.103C14.9794 30.103 5.17007 32.4329 11.5057 33.2789C14.1808 33.6371 19.5135 33.5561 24.4807 33.1399C28.5402 32.7974 32.6166 32.0695 32.6166 32.0695C32.6166 32.0695 31.1852 32.6825 30.1496 33.3895C20.1883 36.0094 0.945117 34.7905 6.48499 32.1108C11.1701 29.8461 14.9794 30.103 14.9794 30.103ZM32.5762 39.9389C42.7022 34.6771 38.0205 29.6203 34.7525 30.3017C33.9515 30.4684 33.5943 30.6129 33.5943 30.6129C33.5943 30.6129 33.8918 30.1471 34.4595 29.9454C40.9244 27.6726 45.8964 36.6489 32.3725 40.2043C32.3725 40.2043 32.5295 40.0643 32.5762 39.9389Z" fill="#5382A1"/>
<path d="M26.4714 0.39502C26.4714 0.39502 32.0793 6.00472 21.1525 14.6312C12.3902 21.5509 19.1544 25.4964 21.1488 30.0045C16.0343 25.3896 12.2809 21.3275 14.799 17.5466C18.4948 11.9967 28.7341 9.30593 26.4714 0.39502Z" fill="#E76F00"/>
<path d="M15.9746 54.1971C25.6943 54.8193 40.6201 53.8519 40.9734 49.2529C40.9734 49.2529 40.2941 50.9963 32.9406 52.381C24.6448 53.9421 14.4127 53.76 8.34399 52.7594C8.34429 52.7591 9.58647 53.7874 15.9746 54.1971Z" fill="#5382A1"/>
<path d="M14.3817 71.7708C13.4648 72.5661 12.4964 73.0125 11.6273 73.0125C10.3869 73.0125 9.71668 72.2687 9.71668 71.0757C9.71668 69.7852 10.4349 68.8417 13.3155 68.8417H14.3815L14.3817 71.7708ZM16.9117 74.6254V65.7891C16.9117 63.5317 15.6243 62.0423 12.5202 62.0423C10.7081 62.0423 9.12068 62.4898 7.83049 63.0605L8.20289 64.6246C9.21873 64.2517 10.5337 63.9047 11.8243 63.9047C13.6124 63.9047 14.3817 64.6246 14.3817 66.1131V67.23H13.4892C9.14468 67.23 7.18488 68.9165 7.18488 71.4477C7.18488 73.6324 8.47638 74.8741 10.9081 74.8741C12.4712 74.8741 13.638 74.2287 14.7288 73.2843L14.9268 74.6257L16.9117 74.6254ZM25.3554 74.6254H22.2L18.4023 62.2661H21.1581L23.5144 69.8596L24.0383 72.1433C25.2304 68.8414 26.0737 65.4915 26.4955 62.2661H29.1761C28.4577 66.3358 27.1654 70.803 25.3554 74.6254ZM37.4607 71.7708C36.5421 72.5661 35.5721 73.0125 34.7029 73.0125C33.4646 73.0125 32.7927 72.2687 32.7927 71.0757C32.7927 69.7852 33.5123 68.8417 36.3928 68.8417H37.4607V71.7708ZM39.9905 74.6254V65.7891C39.9905 63.5317 38.7 62.0423 35.5993 62.0423C33.786 62.0423 32.198 62.4898 30.9084 63.0605L31.2803 64.6246C32.2965 64.2517 33.6139 63.9047 34.9035 63.9047C36.6903 63.9047 37.4607 64.6246 37.4607 66.1131V67.23H36.5667C32.221 67.23 30.2619 68.9165 30.2619 71.4477C30.2619 73.6324 31.5524 74.8741 33.9837 74.8741C35.5478 74.8741 36.7142 74.2287 37.8067 73.2843L38.0054 74.6257L39.9905 74.6254ZM4.41072 76.7241C3.68947 77.7772 2.52453 78.6103 1.24917 79.0816L0 77.6116C0.970737 77.1135 1.80328 76.3091 2.19009 75.5599C2.52467 74.8935 2.66316 74.0346 2.66316 71.9807V57.8706H5.3512V71.7874C5.35105 74.5332 5.13154 75.6424 4.41072 76.7241Z" fill="#E76F00"/>
</svg>
