<svg width="52" height="59" viewBox="0 0 52 59" fill="none" xmlns="http://www.w3.org/2000/svg">
<path d="M0.166992 0.366172C5.85514 0.126551 11.5547 0.434636 17.2486 0.337647C23.5301 0.137962 29.8058 0.303415 36.0931 0.326236C41.0795 0.337646 46.0658 0.303414 51.0522 0.343351C49.4833 17.6474 47.903 34.9515 46.4481 52.267C39.7673 54.1668 33.0807 56.0382 26.3998 57.9266C25.544 58.2803 24.6654 57.9494 23.8438 57.7269C17.4939 55.9012 11.1439 54.0927 4.78255 52.3354C3.12802 35.0257 1.57049 17.6988 0.166992 0.366172ZM25.7152 4.87904C25.4813 13.4141 25.6809 21.9492 25.6125 30.4843C25.6752 38.2891 25.4984 46.0996 25.7038 53.9044C31.3178 52.5808 36.8576 50.9548 42.3974 49.3516C43.7894 34.535 45.1473 19.7184 46.3112 4.88474C39.4477 4.81628 32.5786 4.89615 25.7152 4.87904ZM18.5722 38.2092C15.2745 37.3078 12.0168 36.2694 8.67355 35.5563C8.57656 37.5417 8.61079 39.5271 8.839 41.5011C13.7341 42.6935 18.5265 44.2625 23.4274 45.4321C23.4616 34.1299 23.4102 22.8221 23.4502 11.52C21.8527 11.48 20.2552 11.4572 18.6578 11.423C18.4752 20.346 18.6464 29.2805 18.5722 38.2092Z" fill="#D6BA32"/>
<path d="M25.7151 4.87895C32.5786 4.89607 39.4477 4.8162 46.3111 4.88466C45.1473 19.7184 43.7894 34.5349 42.3973 49.3515C36.8575 50.9547 31.3177 52.5807 25.7037 53.9043C25.4983 46.0995 25.6752 38.289 25.6124 30.4842C25.6809 21.9491 25.4812 13.414 25.7151 4.87895ZM27.6378 11.5142C27.6606 18.8626 27.6663 26.2167 27.6378 33.565C30.9925 33.023 34.3358 32.4012 37.6791 31.7907C37.6277 33.5023 37.5593 35.2139 37.4851 36.9254C34.2274 37.7926 30.9754 38.6884 27.7006 39.4928C27.6492 41.4668 27.6435 43.4408 27.6606 45.4206C31.7855 44.4963 35.8477 43.3324 39.9441 42.2998C40.4576 42.0602 41.4446 42.0887 41.3989 41.2843C41.8953 36.0012 42.2034 30.6953 42.6826 25.4008C39.288 25.6804 35.9276 26.2509 32.5329 26.4848C32.5044 23.4838 32.4987 20.4829 32.5443 17.4819C36.1158 17.4819 39.6816 17.4819 43.2531 17.4876C43.4813 15.485 43.681 13.4768 43.8351 11.4685C38.4379 11.4914 33.035 11.4172 27.6378 11.5142Z" fill="#FFDA3E"/>
<path d="M18.5721 38.2091C18.6463 29.2803 18.4752 20.3459 18.6577 11.4229C20.2552 11.4571 21.8527 11.4799 23.4501 11.5199C23.4102 22.822 23.4616 34.1298 23.4273 45.432C18.5265 44.2624 13.7341 42.6934 8.83898 41.501C8.61077 39.527 8.57652 37.5416 8.67351 35.5561C12.0168 36.2693 15.2745 37.3076 18.5721 38.2091Z" fill="#EBEBEB"/>
</svg>
