<svg width="65" height="63" viewBox="0 0 65 63" fill="none" xmlns="http://www.w3.org/2000/svg">
<path d="M64.9904 62.5773H0.538086L21.9947 16.809L34.9195 26.3107L51.778 0.0263672L64.9904 62.5773ZM41.359 52.6918H41.4969C43.0922 52.6947 44.6261 52.078 45.7753 50.9721C46.3644 50.4377 46.8328 49.7842 47.1499 49.0548C47.467 48.3254 47.6254 47.5371 47.6145 46.7419C47.6408 45.9758 47.4953 45.2136 47.1886 44.511C46.8819 43.8084 46.4217 43.1834 45.842 42.682C44.8647 41.7014 43.5476 41.1342 42.1637 41.098H42.058C41.8767 41.0971 41.6965 41.1218 41.5223 41.1714L44.9248 36.1137L42.2142 34.2216L40.9314 36.1137L37.6531 41.1209C37.0898 41.9509 36.6184 42.682 36.3266 43.19C36.0237 43.7275 35.7631 44.2879 35.5471 44.8659C35.3015 45.4802 35.1752 46.1356 35.1747 46.7971C35.1671 47.5829 35.3249 48.3615 35.6378 49.0824C35.9506 49.8033 36.4118 50.4503 36.991 50.9813C38.1252 52.0863 39.6468 52.7035 41.2303 52.7009L41.359 52.6918ZM26.949 47.2477L30.7056 52.5606H34.7218L30.3031 46.397L34.2276 40.9485L31.6228 39.1461L30.4733 40.6634L26.9443 45.6385V35.6354L23.4269 32.7686V52.5584H26.9443V47.243L26.949 47.2477ZM41.3637 49.3743C40.6777 49.3743 40.0199 49.1018 39.5348 48.6168C39.0498 48.1317 38.7773 47.4739 38.7773 46.7879C38.7773 46.1019 39.0498 45.4441 39.5348 44.959C40.0199 44.474 40.6777 44.2015 41.3637 44.2015H41.3867C41.7273 44.2019 42.0644 44.2712 42.3777 44.4051C42.6909 44.539 42.974 44.7349 43.2097 44.981C43.4578 45.2087 43.6553 45.4861 43.7896 45.7949C43.9236 46.1038 43.9917 46.4373 43.9891 46.7741C43.9807 47.4647 43.7007 48.1241 43.2098 48.6098C42.7189 49.0956 42.0564 49.3686 41.3659 49.3696L41.3637 49.3743Z" fill="#7D64FF"/>
</svg>
