<svg width="59" height="59" viewBox="0 0 59 59" fill="none" xmlns="http://www.w3.org/2000/svg">
<path fill-rule="evenodd" clip-rule="evenodd" d="M0.415527 12.6396H58.4419V48.9061H0.415527V12.6396Z" fill="#DDEEFF"/>
<path fill-rule="evenodd" clip-rule="evenodd" d="M58.4419 12.6396H0.415527V5.37422C0.415527 2.71034 2.58438 0.550781 5.26299 0.550781H53.5944C56.2716 0.550781 58.4419 2.70773 58.4419 5.37422V12.6396Z" fill="#BBDDFF"/>
<path fill-rule="evenodd" clip-rule="evenodd" d="M14.9222 9.01281C13.5869 9.01281 12.5044 7.93026 12.5044 6.59497C12.5044 5.25969 13.5868 4.17725 14.9222 4.17725C16.2576 4.17725 17.3399 5.25969 17.3399 6.59497C17.3399 7.93026 16.2576 9.01281 14.9222 9.01281ZM6.45996 9.01281C5.12468 9.01281 4.04224 7.93026 4.04224 6.59497C4.04224 5.25969 5.12468 4.17725 6.45996 4.17725C7.79525 4.17725 8.8778 5.25969 8.8778 6.59497C8.8778 7.93026 7.79525 9.01281 6.45996 9.01281Z" fill="white"/>
<path fill-rule="evenodd" clip-rule="evenodd" d="M10.0865 48.9063H0.415527C0.415527 41.4812 3.24817 34.056 8.91321 28.3908C20.2437 17.0605 38.6138 17.0605 49.9442 28.3908L43.1057 35.2293C39.6054 31.7291 34.7698 29.5641 29.4287 29.5641C18.7463 29.5641 10.0865 38.2239 10.0865 48.9063Z" fill="#0066FF"/>
<path fill-rule="evenodd" clip-rule="evenodd" d="M48.7711 48.9061H58.4421C58.4421 41.481 55.6095 34.0558 49.9445 28.3906L43.106 35.2291C46.6061 38.7294 48.7711 43.5649 48.7711 48.9061Z" fill="#CC66FF"/>
<path fill-rule="evenodd" clip-rule="evenodd" d="M22.5902 55.7449C18.8134 51.9682 18.8134 45.8449 22.5902 42.068C26.367 38.2913 47.3797 30.9556 47.3797 30.9556C47.3797 30.9556 40.044 51.9682 36.2672 55.7449C32.4904 59.5218 26.367 59.5218 22.5902 55.7449Z" fill="#66CCFF"/>
<path fill-rule="evenodd" clip-rule="evenodd" d="M29.4291 53.7418C26.7585 53.7418 24.5935 51.5769 24.5935 48.9064C24.5935 46.2358 26.7585 44.0708 29.4291 44.0708C32.0996 44.0708 34.2646 46.2358 34.2646 48.9064C34.2646 51.5769 32.0996 53.7418 29.4291 53.7418Z" fill="#0066FF"/>
</svg>
