<svg width="60" height="60" viewBox="0 0 60 60" fill="none" xmlns="http://www.w3.org/2000/svg">
<path d="M58.9515 33.7436C60.9974 17.7276 49.6868 3.08521 33.7 1.03937C17.7133 -1.00647 3.01246 10.3041 0.966617 26.2909C-1.07922 42.2776 10.2313 56.9492 26.2181 59.0243C42.2341 61.0701 56.8765 49.7596 58.9515 33.7436Z" fill="#FF6C37"/>
<path d="M40.5099 19.5689L28.1764 31.9024L24.6985 28.4245C36.8274 16.2956 38.0257 17.3477 40.5099 19.5689Z" fill="white"/>
<path d="M28.1764 32.1947C28.0887 32.1947 28.0302 32.1654 27.9718 32.107L24.4646 28.6291C24.3477 28.5122 24.3477 28.3368 24.4646 28.2199C36.7981 15.8864 38.0841 17.0555 40.6852 19.3936C40.7437 19.452 40.7729 19.5105 40.7729 19.5982C40.7729 19.6858 40.7437 19.7443 40.6852 19.8027L28.3517 32.107C28.3225 32.1654 28.2348 32.1947 28.1764 32.1947ZM25.1076 28.4245L28.1764 31.4932L40.0715 19.5982C37.9087 17.6692 36.4474 17.0847 25.1076 28.4245Z" fill="#FF6C37"/>
<path d="M31.7126 35.4386L28.3516 32.0776L40.685 19.7441C43.9876 23.0759 39.0484 28.4828 31.7126 35.4386Z" fill="white"/>
<path d="M31.7127 35.7312C31.625 35.7312 31.5666 35.702 31.5081 35.6435L28.1471 32.2825C28.0886 32.224 28.0886 32.1656 28.0886 32.0779C28.0886 31.9902 28.1179 31.9318 28.1763 31.8733L40.5098 19.5398C40.6267 19.4229 40.8021 19.4229 40.919 19.5398C41.6788 20.2413 42.088 21.235 42.0588 22.2579C42.0003 25.502 38.3178 29.6229 31.9465 35.6435C31.8588 35.702 31.7711 35.7312 31.7127 35.7312ZM28.7608 32.0779C30.6313 33.9776 31.4204 34.7375 31.7127 35.0298C36.6227 30.3535 41.3866 25.5604 41.4158 22.2579C41.445 21.498 41.1528 20.7381 40.6559 20.1536L28.7608 32.0779Z" fill="#FF6C37"/>
<path d="M24.7568 28.5118L27.241 30.9961C27.2995 31.0545 27.2995 31.113 27.241 31.1714C27.2118 31.2007 27.2118 31.2007 27.1826 31.2007L22.0387 32.3113C21.7757 32.3405 21.5419 32.1651 21.4834 31.9021C21.4542 31.756 21.5127 31.6098 21.6003 31.5221L24.5814 28.5411C24.6399 28.4826 24.7275 28.4534 24.7568 28.5118Z" fill="white"/>
<path d="M21.9513 32.6035C21.5129 32.6035 21.1914 32.2528 21.1914 31.8144C21.1914 31.6099 21.2791 31.4053 21.4252 31.2591L24.4063 28.2781C24.5817 28.1319 24.8155 28.1319 24.9908 28.2781L27.4751 30.7623C27.6504 30.9084 27.6504 31.1715 27.4751 31.3468C27.4166 31.4053 27.3582 31.4345 27.2705 31.4637L22.1266 32.5743C22.0682 32.5743 22.0097 32.6035 21.9513 32.6035ZM24.6693 28.8334L21.8052 31.6975C21.7467 31.756 21.7175 31.8437 21.7759 31.9313C21.8052 32.019 21.8928 32.0482 21.9805 32.019L26.8029 30.9669L24.6693 28.8334Z" fill="#FF6C37"/>
<path d="M47.0274 12.73C45.1569 10.918 42.1466 10.9765 40.3345 12.8762C38.5225 14.7759 38.581 17.757 40.4807 19.569C42.0297 21.0595 44.3678 21.3226 46.209 20.212L42.8772 16.8802L47.0274 12.73Z" fill="white"/>
<path d="M43.7537 21.1764C40.9772 21.1764 38.7268 18.926 38.7268 16.1495C38.7268 13.373 40.9772 11.1226 43.7537 11.1226C45.0397 11.1226 46.2964 11.6194 47.2317 12.5254C47.2901 12.5839 47.3193 12.6423 47.3193 12.73C47.3193 12.8177 47.2901 12.8761 47.2317 12.9346L43.2861 16.8801L46.3841 19.9781C46.501 20.095 46.501 20.2704 46.3841 20.3873C46.3549 20.4165 46.3549 20.4165 46.3256 20.4457C45.5658 20.9134 44.6597 21.1764 43.7537 21.1764ZM43.7537 11.7363C41.2987 11.7363 39.3113 13.7237 39.3406 16.1787C39.3406 18.6337 41.3279 20.6211 43.783 20.5919C44.4552 20.5919 45.1274 20.4457 45.7411 20.1243L42.6724 17.0847C42.6139 17.0263 42.5847 16.9678 42.5847 16.8801C42.5847 16.7925 42.6139 16.734 42.6724 16.6755L46.5887 12.7592C45.7996 12.087 44.8059 11.7363 43.7537 11.7363Z" fill="#FF6C37"/>
<path d="M47.1148 12.8172L47.0563 12.7588L42.877 16.8797L46.1795 20.1823C46.501 19.9777 46.8225 19.7439 47.0855 19.4808C48.956 17.6396 48.956 14.6585 47.1148 12.8172Z" fill="white"/>
<path d="M46.209 20.504C46.1213 20.504 46.0629 20.4747 46.0044 20.4163L42.6726 17.0845C42.6142 17.026 42.585 16.9676 42.585 16.8799C42.585 16.7922 42.6142 16.7338 42.6726 16.6753L46.8228 12.5252C46.9397 12.4083 47.115 12.4083 47.2319 12.5252L47.3196 12.5836C49.2778 14.5418 49.2778 17.6982 47.3488 19.6856C47.0566 19.9779 46.7351 20.2409 46.3844 20.4455C46.2967 20.4747 46.2382 20.504 46.209 20.504ZM43.2864 16.8799L46.2382 19.8317C46.4721 19.6856 46.7059 19.481 46.8812 19.3057C48.5471 17.6398 48.6348 14.9217 47.0274 13.1682L43.2864 16.8799Z" fill="#FF6C37"/>
<path d="M41.0068 20.0949C40.3054 19.3935 39.1655 19.3935 38.4641 20.0949L27.4458 31.1132L29.2871 32.9545L40.9483 22.7253C41.7082 22.0823 41.7667 20.9425 41.1237 20.1826C41.0652 20.1534 41.036 20.1241 41.0068 20.0949Z" fill="white"/>
<path d="M29.2578 33.2465C29.1701 33.2465 29.1117 33.2173 29.0532 33.1588L27.2119 31.3176C27.095 31.2007 27.095 31.0253 27.2119 30.9084L38.2303 19.8901C39.0486 19.0718 40.3638 19.0718 41.1821 19.8901C42.0004 20.7085 42.0004 22.0236 41.1821 22.842C41.1529 22.8712 41.1237 22.9004 41.0944 22.9297L29.4331 33.1588C29.4039 33.2173 29.3455 33.2465 29.2578 33.2465ZM27.8549 31.113L29.287 32.5451L40.7437 22.4913C41.3867 21.9652 41.4451 21.0007 40.9191 20.3577C40.393 19.7148 39.4285 19.6563 38.7856 20.1824C38.7563 20.2116 38.7271 20.2408 38.6686 20.2701L27.8549 31.113Z" fill="#FF6C37"/>
<path d="M18.9994 43.6513C18.8825 43.7098 18.824 43.8267 18.8533 43.9436L19.3501 46.0479C19.467 46.3402 19.2917 46.6909 18.9702 46.7785C18.7364 46.8662 18.4733 46.7785 18.3272 46.6032L15.1123 43.4175L25.6045 32.9253L29.2286 32.9837L31.6836 35.4388C31.0991 35.9356 27.5627 39.3551 18.9994 43.6513Z" fill="white"/>
<path d="M18.7655 47.0706C18.5317 47.0706 18.2979 46.9829 18.1518 46.8076L14.9661 43.6219C14.9076 43.5634 14.8784 43.505 14.8784 43.4173C14.8784 43.3296 14.9076 43.2712 14.9661 43.2127L25.4583 32.7205C25.5168 32.662 25.6045 32.6328 25.6629 32.6328L29.287 32.6913C29.3746 32.6913 29.4331 32.7205 29.4916 32.7789L31.9466 35.234C32.005 35.2924 32.0342 35.3801 32.0342 35.4678C32.0342 35.5554 32.005 35.6139 31.9173 35.6723L31.7128 35.8477C28.6148 38.5657 24.4062 41.2838 19.1747 43.8849L19.6715 45.96C19.7592 46.3399 19.5838 46.7491 19.2331 46.9537C19.0578 47.0414 18.9116 47.0706 18.7655 47.0706ZM15.5506 43.4173L18.5609 46.3984C18.6486 46.5445 18.824 46.603 18.9701 46.5153C19.1162 46.4276 19.1747 46.2523 19.087 46.1061L18.5902 44.0018C18.5317 43.7388 18.6486 43.505 18.8824 43.3881C24.0555 40.7869 28.2348 38.0981 31.3036 35.4385L29.1408 33.2758L25.7798 33.2173L15.5506 43.4173Z" fill="#FF6C37"/>
<path d="M12.6281 45.9309L15.1416 43.4175L18.8826 47.1584L12.9204 46.7493C12.6574 46.72 12.482 46.4862 12.5112 46.2232C12.5112 46.1063 12.5405 45.9894 12.6281 45.9309Z" fill="white"/>
<path d="M18.8823 47.4212L12.8909 47.012C12.4525 46.9828 12.1603 46.6029 12.1895 46.1645C12.2187 45.9891 12.2772 45.8137 12.4233 45.6968L14.9368 43.1834C15.0537 43.0665 15.229 43.0665 15.3459 43.1834L19.0869 46.9243C19.1746 47.012 19.2038 47.1289 19.1454 47.2458C19.0869 47.3627 18.9992 47.4212 18.8823 47.4212ZM15.1414 43.8264L12.8325 46.1352C12.7448 46.1937 12.7448 46.3398 12.8325 46.3983C12.8617 46.4275 12.8909 46.4567 12.9494 46.4567L18.1224 46.8074L15.1414 43.8264Z" fill="#FF6C37"/>
<path d="M24.5816 34.2696C24.4062 34.2696 24.2893 34.1234 24.2893 33.9773C24.2893 33.8896 24.3185 33.8312 24.377 33.7727L27.2119 30.9378C27.3288 30.8209 27.5042 30.8209 27.6211 30.9378L29.4624 32.779C29.55 32.8667 29.5793 32.9544 29.55 33.0713C29.5208 33.159 29.4331 33.2467 29.3162 33.2759L24.64 34.2696C24.6108 34.2696 24.5816 34.2696 24.5816 34.2696ZM27.4165 31.5515L25.4876 33.4805L28.644 32.8083L27.4165 31.5515Z" fill="#FF6C37"/>
<path d="M29.2286 32.9834L26.0137 33.6848C25.7799 33.7433 25.546 33.5972 25.4876 33.3634C25.4584 33.2172 25.4876 33.0711 25.6045 32.9542L27.3873 31.1714L29.2286 32.9834Z" fill="white"/>
<path d="M25.955 33.9773C25.5459 33.9773 25.2244 33.6558 25.2244 33.2467C25.2244 33.0421 25.312 32.8667 25.4289 32.7206L27.2118 30.9378C27.3287 30.8209 27.504 30.8209 27.6209 30.9378L29.4622 32.779C29.5499 32.8667 29.5791 32.9544 29.5499 33.0713C29.5206 33.159 29.4329 33.2467 29.316 33.2759L26.1012 33.9773C26.0427 33.9773 25.9842 33.9773 25.955 33.9773ZM27.4163 31.5515L25.8381 33.1297C25.7797 33.1882 25.7797 33.2467 25.8089 33.3051C25.8381 33.3636 25.8966 33.3928 25.9842 33.3928L28.6731 32.8083L27.4163 31.5515Z" fill="#FF6C37"/>
<path d="M47.1442 15.6235C47.0857 15.4481 46.8812 15.3605 46.7058 15.4189C46.5304 15.4774 46.4428 15.6819 46.5012 15.8573C46.5012 15.8865 46.5304 15.9158 46.5304 15.945C46.7058 16.2957 46.6473 16.7341 46.4135 17.0556C46.2966 17.2017 46.3259 17.4063 46.4428 17.5232C46.5889 17.6401 46.7935 17.6109 46.9104 17.4648C47.3488 16.9095 47.4365 16.208 47.1442 15.6235Z" fill="#FF6C37"/>
</svg>
